<svg xmlns="http://www.w3.org/2000/svg" width="256" height="256" viewBox="0 0 256 256">
  <defs>
    <linearGradient id="gold" x1="0" y1="0" x2="1" y2="1">
      <stop offset="0%" stop-color="#facc15"/>
      <stop offset="100%" stop-color="#fbbf24"/>
    </linearGradient>
    <linearGradient id="silver" x1="0" y1="0" x2="1" y2="1">
      <stop offset="0%" stop-color="#f8fafc"/>
      <stop offset="100%" stop-color="#cbd5e1"/>
    </linearGradient>
    <filter id="glow" x="-50%" y="-50%" width="200%" height="200%">
      <feGaussianBlur stdDeviation="6" result="blur"/>
      <feMerge>
        <feMergeNode in="blur"/>
        <feMergeNode in="SourceGraphic"/>
      </feMerge>
    </filter>
  </defs>
  <rect width="256" height="256" rx="48" fill="url(#silver)"/>
  <g transform="translate(28,28)">
    <circle cx="100" cy="100" r="70" fill="url(#silver)" stroke="#e5e7eb" stroke-width="3"/>
    <path d="M100 20a80 80 0 0 1 80 80c0 9-1.5 17.6-4.3 25.7a6 6 0 0 1-9.9 2.3l-25-25a16 16 0 0 0-22.6 0l-18.3 18.3a16 16 0 0 1-22.6 0l-15.2-15.2a16 16 0 0 0-22.6 0L18 132A80 80 0 0 1 20 100 80 80 0 0 1 100 20Z" fill="url(#gold)" filter="url(#glow)"/>
  </g>
  <text x="128" y="228" text-anchor="middle" font-family="Inter, system-ui, -apple-system, Segoe UI, Roboto" font-weight="900" font-size="28" fill="#0f172a">LIGHT</text>
</svg>